<svg width="20" height="20" viewBox="0 0 20 20" fill="none" xmlns="http://www.w3.org/2000/svg">
<circle cx="10" cy="10" r="10" fill="white"/>
<path d="M10.5186 12.3965H8.88379C8.88965 11.834 8.93945 11.374 9.0332 11.0166C9.13281 10.6533 9.29395 10.3223 9.5166 10.0234C9.73926 9.72461 10.0352 9.38477 10.4043 9.00391C10.6738 8.72852 10.9199 8.4707 11.1426 8.23047C11.3711 7.98438 11.5557 7.7207 11.6963 7.43945C11.8369 7.15234 11.9072 6.80957 11.9072 6.41113C11.9072 6.00684 11.834 5.6582 11.6875 5.36523C11.5469 5.07227 11.3359 4.84668 11.0547 4.68848C10.7793 4.53027 10.4365 4.45117 10.0264 4.45117C9.68652 4.45117 9.36426 4.5127 9.05957 4.63574C8.75488 4.75879 8.50879 4.94922 8.32129 5.20703C8.13379 5.45898 8.03711 5.79004 8.03125 6.2002H6.40527C6.41699 5.53809 6.58105 4.96973 6.89746 4.49512C7.21973 4.02051 7.65332 3.65723 8.19824 3.40527C8.74316 3.15332 9.35254 3.02734 10.0264 3.02734C10.7705 3.02734 11.4033 3.16211 11.9248 3.43164C12.4521 3.70117 12.8535 4.08789 13.1289 4.5918C13.4043 5.08984 13.542 5.68164 13.542 6.36719C13.542 6.89453 13.4336 7.38086 13.2168 7.82617C13.0059 8.26562 12.7334 8.67871 12.3994 9.06543C12.0654 9.45215 11.7109 9.82129 11.3359 10.1729C11.0137 10.4717 10.7969 10.8086 10.6855 11.1836C10.5742 11.5586 10.5186 11.9629 10.5186 12.3965ZM8.81348 15.1826C8.81348 14.9189 8.89551 14.6963 9.05957 14.5146C9.22363 14.333 9.46094 14.2422 9.77148 14.2422C10.0879 14.2422 10.3281 14.333 10.4922 14.5146C10.6562 14.6963 10.7383 14.9189 10.7383 15.1826C10.7383 15.4346 10.6562 15.6514 10.4922 15.833C10.3281 16.0146 10.0879 16.1055 9.77148 16.1055C9.46094 16.1055 9.22363 16.0146 9.05957 15.833C8.89551 15.6514 8.81348 15.4346 8.81348 15.1826Z" fill="#2196F3"/>
</svg>
